<svg id="Layer_1" data-name="Layer 1" xmlns="http://www.w3.org/2000/svg" viewBox="0 0 16 16"><defs><style>.cls-1{fill:#ec2227;}</style></defs><circle cx="8" cy="8" r="8"/><rect class="cls-1" x="4.83" y="11.69" width="2.7" height="0.92"/><path class="cls-1" d="M6.24,6.12a1.14,1.14,0,0,1,.19.15.09.09,0,0,1,0,.05s0,.12-.11.19l-.1.07,0,0h0a.23.23,0,0,0-.1.3.22.22,0,0,0,.2.12.18.18,0,0,0,.1,0,1,1,0,0,0,.23-.17.65.65,0,0,0,.26-.51v0a.57.57,0,0,0-.23-.39c-.16-.14-.37-.26-.52-.38A1.64,1.64,0,0,1,6,5.35a.09.09,0,0,1,0,0h0s0,0,0,0a1.81,1.81,0,0,1,.42-.4c.09-.08.18-.14.26-.22l.11-.12a.34.34,0,0,0,.06-.2.54.54,0,0,0-.24-.43,3.68,3.68,0,0,0-.39-.24.21.21,0,0,0-.3.07.21.21,0,0,0,.07.3c.15.1.28.17.35.23l.06,0-.14.12c-.12.1-.28.22-.42.35a.8.8,0,0,0-.29.53.64.64,0,0,0,.22.42c.16.15.37.27.53.4"/><path class="cls-1" d="M4.94,6a1.12,1.12,0,0,1,.19.16l0,0h0s0,.12-.11.19L5,6.42l0,0h0a.23.23,0,0,0-.1.3.22.22,0,0,0,.2.12l.1,0a1.13,1.13,0,0,0,.23-.17.67.67,0,0,0,.26-.51v0a.57.57,0,0,0-.23-.39c-.16-.14-.36-.26-.52-.38a1.64,1.64,0,0,1-.18-.16s0,0,0-.05h0a.08.08,0,0,1,0,0,1.72,1.72,0,0,1,.41-.4,1.43,1.43,0,0,0,.26-.22.63.63,0,0,0,.11-.12.36.36,0,0,0,.06-.2.54.54,0,0,0-.24-.43,3.68,3.68,0,0,0-.39-.24.21.21,0,0,0-.3.07.22.22,0,0,0,.07.3L5,4.08,5,4.14l-.14.12c-.12.1-.28.22-.42.35a.84.84,0,0,0-.29.53.66.66,0,0,0,.22.42c.17.15.37.27.53.39"/><path class="cls-1" d="M7.45,6a1.15,1.15,0,0,1,.16.19.09.09,0,0,1,0,.05h0s-.06.12-.14.17l-.11.06,0,0h0a.21.21,0,0,0-.14.28.25.25,0,0,0,.18.15h.1a1.78,1.78,0,0,0,.26-.13.74.74,0,0,0,.33-.48v0a.6.6,0,0,0-.17-.42c-.14-.16-.33-.32-.47-.45l-.15-.19,0,0h0v0a2.2,2.2,0,0,1,.47-.34L8,4.56l.12-.11a.34.34,0,0,0,.1-.19.59.59,0,0,0-.18-.46l-.35-.3a.23.23,0,0,0-.31,0,.22.22,0,0,0,0,.31l.32.27a.23.23,0,0,1,0,.07l-.15.1c-.14.08-.31.17-.47.28A.78.78,0,0,0,6.83,5,.62.62,0,0,0,7,5.49,4,4,0,0,0,7.45,6"/><rect class="cls-1" x="10.22" y="11.86" width="1.75" height="0.75"/><rect class="cls-1" x="7.77" y="11.78" width="2.25" height="0.83"/><path class="cls-1" d="M12.85,8.6c0,.12,0,.24,0,.35a3.93,3.93,0,0,1-1.23,2.12l-.29.24a6,6,0,0,1-1.21.6L9.81,12a3.28,3.28,0,0,0,1,.16,3.45,3.45,0,0,0,1-.14,3.8,3.8,0,0,0,1-.45.27.27,0,0,0,.12-.09l.26-.21a3.53,3.53,0,0,0,1.11-1.91,3.45,3.45,0,0,0,.07-.72Z"/><path class="cls-1" d="M10.67,8.15c0,.15,0,.3-.07.44h0a4.28,4.28,0,0,1-1.25,2.23s-.06.06-.1.09L9,11.13l0,0s-.12.11-.18.12l-.22.13h0a4.07,4.07,0,0,1-1,.43H7.53A3.69,3.69,0,0,0,9.61,12l.25-.05a3.82,3.82,0,0,0,1.08-.51,3.32,3.32,0,0,0,.43-.33A3.85,3.85,0,0,0,12.59,9a2,2,0,0,0,.06-.35,3.4,3.4,0,0,0,0-.45Z"/><path class="cls-1" d="M1.91,7.71A4.28,4.28,0,0,0,6.19,12a4,4,0,0,0,1.1-.15h.08a7.22,7.22,0,0,0,.94-.43h0l.21-.13.18-.12,0,0L9,10.92l.09-.09A4.28,4.28,0,0,0,10.36,8.6h0c0-.14.05-.29.07-.44a3.25,3.25,0,0,0,0-.44ZM6.2,11.27H6.13A3.22,3.22,0,0,1,2.7,8.67a.27.27,0,0,1,.2-.32.28.28,0,0,1,.32.21A2.57,2.57,0,0,0,5.49,10.7l.13,0a4.06,4.06,0,0,0,.51,0,.26.26,0,0,1,.26.26.27.27,0,0,1-.19.25"/></svg>